/* XPM */
static char *dummy[]={
"1 50 2 1",
"# c #000000",
". c #9666ff",
".",
".",
".",
".",
"#",
"#",
"#",
"#",
"#",
"#",
"#",
"#",
"#",
"#",
"#",
"#",
"#",
"#",
"#",
"#",
"#",
"#",
"#",
"#",
"#",
"#",
"#",
"#",
"#",
"#",
"#",
"#",
"#",
"#",
"#",
"#",
"#",
"#",
"#",
"#",
"#",
"#",
".",
".",
".",
".",
".",
".",
".",
"."};
